<?xml version="1.0" encoding="UTF-8"?>
<svg id="Warstwa_1" data-name="Warstwa 1" xmlns="http://www.w3.org/2000/svg" viewBox="0 0 596.28 832.21">
  <path d="M342.17,406.58c-3.18-13.03-12.78-25.84-21.91-35.43-8.26-8.68-18.01-14.89-29.78-17.72l.37-.62c15.17-10.59,33.87-19.11,39.19-38.52,4.79-17.44-1.35-42.03-17.86-51.31-24.13-13.55-51.42-4.16-61.05,21.76-6.29,16.91.71,27.6,14.7,36.77,1.52.99,6.27,4.34,5.82.17-.4-3.66-4.48-9.32-5.94-12.89-2.9-7.12-.65-16.88,3.2-23.31,5.4-9.03,11.24-11.6,21.57-8.54,9.8,2.89,16.2,10.8,18.31,20.66,2.49,11.64-1.56,20.41-9.9,28.27-13.46,12.69-28.3,23.1-42.39,34.88-21.51,17.97-41.97,45.1-31.78,74.73,3.47,10.07,12.2,23.32,21.41,28.85,22.14,13.26,54.44,10.16,76.38-2.14,20.89-11.71,25.08-33.48,19.66-55.61ZM323.25,429.28c-2.65,8.32-7.55,11.34-15.56,13.67-13.24,3.86-31.95,5.07-44.37-1.79-17.98-9.94-23.99-26.84-16.12-46.09,4.87-11.89,15.39-20.22,25.42-28.17,4.16-3.3,9.72-4.28,14.74-2.53,5.73,1.99,11.25,4.4,16.06,8.34,14.06,11.49,25.5,38.76,19.83,56.57Z"/>
  <path d="M332.43,357.42c-12.12-1.22-12.42-20.16-.16-21.64,16.52-1.99,16.81,23.31.16,21.64Z"/>
  <path d="M243.75,355.74c-8.97,5.89-20.16-3.47-15.96-13.53,1.32-3.17,4.73-5.96,8.17-6.43,11.94-1.62,17.52,13.57,7.79,19.96Z"/>
</svg>