<?xml version="1.0" encoding="UTF-8"?>
<svg id="Z_Obraz" data-name="Z Obraz" xmlns="http://www.w3.org/2000/svg" viewBox="0 0 123.4 216.55">
  <defs>
    <style>
      .cls-1 {
        fill: #fff;
      }
    </style>
  </defs>
  <path class="cls-1" d="M123.4,0v216.55H0V0h123.4ZM68.51,96.37l20.46-13.58c15.7-11.13,23.2-25.54,20.34-45.15-1.44-9.87-6.15-22.06-14.19-28.33C84.39.95,66.68-2.36,53.87,2.46c-11.38,4.28-18.97,12.65-23.68,23.71-4.1,9.65-4.77,18.11,1.37,27.03,3.16,4.58,10.14,10.44,15.07,13.05.8.43,1.6,1,2.51.59,1.53-.69.6-2.71.19-3.85-2.06-5.76-6.7-11.03-6.68-17.29.01-3.68.66-8.5,2.01-11.92,2.39-6.09,7.9-14.36,15.05-14.84,10.86-.73,21.4,6.02,25.56,15.95,5.57,13.3,2.09,24.82-8.13,34.28-5.92,5.49-12.5,11.22-18.7,16.39-12.71,10.6-26.61,19.28-37.58,31.95-6.07,7.02-11.79,14.23-15.46,22.86-6.76,15.88-6.98,30.72,1.07,46.16,3.64,6.98,10.14,16,16.78,20.31,12.53,8.13,31.55,10.99,46.18,8.8,11.97-1.8,27.19-6.47,36.91-13.78,16.95-12.75,18.9-34.46,13.59-53.79-3.32-12.1-12.56-24.16-21.05-33.21-8.42-8.97-16.26-13.84-28-17.61-.66-.21-1.63-.38-2.23-.65-.13-.06-.2.05-.15-.23ZM14.92,79.01c-8.03.75-12.3,10.07-7.91,16.82s14.84,6.4,18.68-.83c4.15-7.81-2.05-16.8-10.78-15.99ZM111.09,79.01c-8.14.78-12.35,10.28-7.77,17.02,4.5,6.63,14.58,6.12,18.47-.87,4.32-7.78-1.92-16.99-10.7-16.14Z"/>
  <path d="M68.51,96.37c-.05.28.03.17.15.23.59.27,1.56.44,2.23.65,11.74,3.78,19.58,8.64,28,17.61,8.49,9.04,17.73,21.11,21.05,33.21,5.31,19.33,3.36,41.04-13.59,53.79-9.72,7.32-24.94,11.99-36.91,13.78-14.63,2.19-33.65-.67-46.18-8.8-6.64-4.31-13.14-13.33-16.78-20.31-8.05-15.43-7.83-30.28-1.07-46.16,3.67-8.62,9.38-15.83,15.46-22.86,10.96-12.67,24.86-21.36,37.58-31.95,6.21-5.17,12.78-10.91,18.7-16.39,10.22-9.47,13.7-20.98,8.13-34.28-4.16-9.94-14.7-16.68-25.56-15.95-7.15.48-12.66,8.76-15.05,14.84-1.34,3.42-2,8.24-2.01,11.92-.02,6.26,4.63,11.53,6.68,17.29.41,1.14,1.34,3.16-.19,3.85-.91.41-1.71-.16-2.51-.59-4.92-2.61-11.91-8.47-15.07-13.05-6.14-8.92-5.47-17.38-1.37-27.03,4.7-11.06,12.29-19.43,23.68-23.71,12.81-4.82,30.52-1.52,41.25,6.84,8.05,6.27,12.75,18.46,14.19,28.33,2.86,19.61-4.64,34.02-20.34,45.15l-20.46,13.58ZM57.4,104.91c-9.08,7.35-18.68,14.27-26.08,23.41-8.09,10-12.19,26.75-6.66,38.79,5.18,11.29,16.85,19.21,28.88,21.38,11.39,2.05,27.66.53,38.28-4.27,14.81-6.68,12.05-29.4,7.45-41.84s-12.95-25.52-25.71-31.64c-5.16-2.48-10.74-4.02-16.16-5.84Z"/>
  <path d="M14.92,79.01c8.72-.81,14.93,8.18,10.78,15.99-3.84,7.22-14.22,7.68-18.68.83s-.13-16.07,7.91-16.82Z"/>
  <path d="M111.09,79.01c8.79-.85,15.03,8.36,10.7,16.14-3.89,6.99-13.97,7.5-18.47.87-4.58-6.74-.37-16.23,7.77-17.02Z"/>
  <path class="cls-1" d="M57.4,104.91c5.42,1.81,10.99,3.36,16.16,5.84,12.77,6.13,20.93,18.7,25.71,31.64s7.36,35.15-7.45,41.84c-10.62,4.79-26.89,6.32-38.28,4.27-12.04-2.17-23.7-10.09-28.88-21.38-5.53-12.04-1.43-28.79,6.66-38.79,7.4-9.15,17-16.07,26.08-23.41Z"/>
</svg>